<svg xmlns="http://www.w3.org/2000/svg" width="500" height="500" style="width:100%;height:100%"><defs><clipPath id="a"><path d="M0 0h500v500H0z"/></clipPath></defs><g clip-path="url(#a)"><g display="block"><path stroke-linecap="round" stroke-linejoin="round" stroke="#232323" stroke-width="16.128" d="M175.027 180.919c-9.08 7.52-20.73 12.05-33.45 12.05-28.99 0-52.48-23.5-52.48-52.49 0-28.98 23.49-52.48 52.48-52.48 28.49 0 51.69 22.72 52.46 51.03" fill="none"/><path stroke-linecap="round" stroke-linejoin="round" stroke-dasharray="1 30" stroke="#232323" stroke-width="16.128" d="M157.317 159.519a24.594 24.594 0 01-15.75 5.67c-13.64 0-24.7-11.06-24.7-24.71 0-13.64 11.06-24.7 24.7-24.7 13.15 0 23.91 10.28 24.66 23.25" fill="none"/></g><path stroke-linecap="round" stroke-linejoin="round" stroke="#232323" stroke-width="16.128" d="M339.536 103.472a6.802 6.802 0 11-13.605 0 6.802 6.802 0 0113.605 0zm-89.206 96.585l77.898-91.49" fill="none" display="block"/><path stroke-linecap="round" stroke-linejoin="round" stroke="#121331" stroke-width="16.128" d="M290.072 409.333h-81.718m42.641 0l-.001-134.524L141.123 139.03h220.743L250.994 274.809" fill="none" display="block"/></g></svg>