<svg xmlns="http://www.w3.org/2000/svg" width="500" height="500" style="width:100%;height:100%"><defs><filter id="a" filterUnits="objectBoundingBox" x="0%" y="0%" width="100%" height="100%"><feComponentTransfer in="SourceGraphic"><feFuncA type="table" tableValues="1.0 0.0"/></feComponentTransfer></filter><filter id="b" filterUnits="objectBoundingBox" x="0%" y="0%" width="100%" height="100%"><feComponentTransfer in="SourceGraphic"><feFuncA type="table" tableValues="1.0 0.0"/></feComponentTransfer></filter><filter id="c" filterUnits="objectBoundingBox" x="0%" y="0%" width="100%" height="100%"><feComponentTransfer in="SourceGraphic"><feFuncA type="table" tableValues="1.0 0.0"/></feComponentTransfer></filter><mask id="h"><g filter="url(#a)"><g display="block"><path fill="red" d="M164.39 328.18l-43.74 29.57m221.63-29.57l43.74 29.57m19.19-134.53c19.91 0 34.86 18.2 30.98 37.74l-8.21 41.37c-2.88 14.44-15.55 24.85-30.27 24.85H102.29c-14.72 0-27.39-10.41-30.27-24.85l-8.21-41.37c-3.88-19.54 11.07-37.74 30.98-37.74l19.94 49.48c3.65 9.05 13.35 14.15 22.85 11.91 53.14-12.49 177.01-12.8 225.03-.93 9.54 2.36 19.35-2.76 23.02-11.88l19.58-48.58z"/><path stroke-linecap="round" stroke-linejoin="round" fill-opacity="0" stroke="#08A88A" stroke-width="0" d="M164.388 328.178l-43.743 29.568m221.631-29.568l43.744 29.568"/><path stroke-linecap="round" stroke-linejoin="round" fill-opacity="0" stroke="#121331" stroke-width="0" d="M405.205 223.217s0 0 0 0c19.916 0 34.862 18.204 30.986 37.739l-8.209 41.371c-2.877 14.447-15.548 24.852-30.273 24.852H102.291c-14.725 0-27.396-10.405-30.273-24.852l-8.209-41.371c-3.876-19.535 11.07-37.739 30.986-37.739 0 0 0 0 0 0l19.932 49.48c3.649 9.058 13.351 14.149 22.857 11.914 53.134-12.49 177.006-12.8 225.021-.932 9.543 2.359 19.355-2.758 23.028-11.876l19.572-48.586z"/></g></g></mask><mask id="g"><g filter="url(#b)"><g display="block"><path fill="red" d="M164.39 328.18l-43.74 29.57m221.63-29.57l43.74 29.57m19.19-134.53c19.91 0 34.86 18.2 30.98 37.74l-8.21 41.37c-2.88 14.44-15.55 24.85-30.27 24.85H102.29c-14.72 0-27.39-10.41-30.27-24.85l-8.21-41.37c-3.88-19.54 11.07-37.74 30.98-37.74l19.94 49.48c3.65 9.05 13.35 14.15 22.85 11.91 53.14-12.49 177.01-12.8 225.03-.93 9.54 2.36 19.35-2.76 23.02-11.88l19.58-48.58z"/><path stroke-linecap="round" stroke-linejoin="round" fill-opacity="0" stroke="#08A88A" stroke-width="0" d="M164.388 328.178l-43.743 29.568m221.631-29.568l43.744 29.568"/><path stroke-linecap="round" stroke-linejoin="round" fill-opacity="0" stroke="#121331" stroke-width="0" d="M405.205 223.217s0 0 0 0c19.916 0 34.862 18.204 30.986 37.739l-8.209 41.371c-2.877 14.447-15.548 24.852-30.273 24.852H102.291c-14.725 0-27.396-10.405-30.273-24.852l-8.209-41.371c-3.876-19.535 11.07-37.739 30.986-37.739 0 0 0 0 0 0l19.932 49.48c3.649 9.058 13.351 14.149 22.857 11.914 53.134-12.49 177.006-12.8 225.021-.932 9.543 2.359 19.355-2.758 23.028-11.876l19.572-48.586z"/></g></g></mask><mask id="f"><g filter="url(#c)"><g clip-path="url(#d)" display="block"><g display="block"><path stroke-linecap="round" stroke-linejoin="round" fill-opacity="0" stroke="#08A88A" stroke-width="0" d="M404.91 272.434l-40.798 21.17a8.331 8.331 0 01-11.232-3.558l-21.17-40.798a8.331 8.331 0 013.558-11.232l40.798-21.17a8.331 8.331 0 0111.232 3.558l21.17 40.798a8.331 8.331 0 01-3.558 11.232z"/><path fill="red" d="M34.821 17.209l-40.798 21.17a8.331 8.331 0 01-11.232-3.558l-21.17-40.798a8.331 8.331 0 013.558-11.232l40.798-21.17a8.331 8.331 0 0111.232 3.558l21.17 40.798a8.331 8.331 0 01-3.558 11.232z" transform="translate(370.089 255.225)"/></g><g display="block"><path stroke-linecap="round" stroke-linejoin="round" fill-opacity="0" stroke="#08A88A" stroke-width="0" d="M104.461 272.434l40.798 21.17a8.331 8.331 0 0011.232-3.558l21.17-40.798a8.331 8.331 0 00-3.558-11.232l-40.798-21.17a8.331 8.331 0 00-11.232 3.558l-21.17 40.798a8.331 8.331 0 003.558 11.232z"/><path fill="red" d="M-34.821 17.209l40.798 21.17a8.331 8.331 0 0011.232-3.558l21.17-40.798a8.331 8.331 0 00-3.558-11.232l-40.798-21.17a8.331 8.331 0 00-11.232 3.558l-21.17 40.798a8.331 8.331 0 003.558 11.232z" transform="translate(139.282 255.225)"/></g></g></g></mask><clipPath id="e"><path d="M0 0h500v500H0z"/></clipPath><clipPath id="d"><path d="M0 0h500v500H0z"/></clipPath></defs><g clip-path="url(#e)"><g mask="url(#f)" display="block"><path stroke-linecap="round" stroke-linejoin="round" stroke="#121331" stroke-width="15.652" d="M94.796 223.217s0 0 0 0v-9.646c0-19.79 16.043-35.834 35.833-35.834h238.732c19.796 0 35.844 16.049 35.844 35.845v9.635s0 0 0 0m-210.68 1.384s0 0 0 0m55.475 0s0 0 0 0m55.476 0s0 0 0 0" fill="none"/></g><g mask="url(#g)" display="block"><path stroke-linecap="round" stroke-linejoin="round" stroke="#08A88A" stroke-width="15.652" d="M404.91 272.434l-40.798 21.17a8.331 8.331 0 01-11.232-3.558l-21.17-40.798a8.331 8.331 0 013.558-11.232l40.798-21.17a8.331 8.331 0 0111.232 3.558l21.17 40.798a8.331 8.331 0 01-3.558 11.232z" fill="none"/></g><g mask="url(#h)" display="block"><path stroke-linecap="round" stroke-linejoin="round" stroke="#08A88A" stroke-width="15.652" d="M104.461 272.434l40.798 21.17a8.331 8.331 0 0011.232-3.558l21.17-40.798a8.331 8.331 0 00-3.558-11.232l-40.798-21.17a8.331 8.331 0 00-11.232 3.558l-21.17 40.798a8.331 8.331 0 003.558 11.232z" fill="none"/></g><g display="block"><path stroke-linecap="round" stroke-linejoin="round" stroke="#08A88A" stroke-width="15.652" d="M164.388 328.178l-43.743 29.568m221.631-29.568l43.744 29.568" fill="none"/><path stroke-linecap="round" stroke-linejoin="round" stroke="#121331" stroke-width="15.652" d="M405.205 223.217s0 0 0 0c19.916 0 34.862 18.204 30.986 37.739l-8.209 41.371c-2.877 14.447-15.548 24.852-30.273 24.852H102.291c-14.725 0-27.396-10.405-30.273-24.852l-8.209-41.371c-3.876-19.535 11.07-37.739 30.986-37.739 0 0 0 0 0 0l19.932 49.48c3.649 9.058 13.351 14.149 22.857 11.914 53.134-12.49 177.006-12.8 225.021-.932 9.543 2.359 19.355-2.758 23.028-11.876l19.572-48.586z" fill="none"/></g></g></svg>