<svg id="bold" height="512" viewBox="0 0 24 24" width="512" xmlns="http://www.w3.org/2000/svg"><path d="m15.05 9.37c-.53.08-1.07.23-1.57.44-.33-.25-.69-.47-1.06-.65-1.14-.56-2.41-.76-3.64-.6l.2-.86c.44.17.92.21 1.39.1.68-.14 1.26-.59 1.6-1.22l.88-1.67c.5-.99.26-2.17-.61-2.88l-1.58-1.3c-.87-.72-2.06-.93-3.12-.55l-2.66.94c-.99.32-1.76 1.1-2.05 2.09l-2.7 9.06c-.33 1.07-.03 2.25.79 3.06 3.16 3.13 6.07 3.45 9.52 2.57 0-.01 0-.01 0-.01.18-.32.4-.62.66-.88l.58-.58c.25-.25.53-.46.83-.62-.04-.04-.08-.07-.12-.1-.18-.16-.42-.25-.65-.25-.11 0-.22.02-.32.06-3.71 1.23-6.14 1.33-9.09-1.61-.29-.29-.4-.69-.29-1.06l2.71-9.07c.1-.36.38-.63.77-.76l2.69-.95c.4-.15.85-.07 1.17.2l1.59 1.31c.14.11.17.27.1.41l-.87 1.66c-.05.1-.15.17-.27.2-.11.03-.23 0-.33-.07l-.69-.51c-.27-.19-.62-.24-.94-.12-.31.11-.55.38-.62.71l-.9 3.88c-.08.37.05.76.35 1 .29.24.7.29 1.04.13 1.15-.52 2.53-.49 3.71.09.05.02.09.05.13.08-.23.23-.44.49-.61.77-.29.47-.14 1.09.33 1.38.17.1.35.14.52.14.34 0 .67-.17.86-.48.49-.82 1.67-1.36 2.59-1.51.49-.08.98-.09 1.44-.04l.2-.2c.63-.63 1.49-1.01 2.38-1.07-1.27-.67-2.8-.92-4.34-.66z"/><path d="m23.487 15.099-2.585-2.585c-.661-.661-1.813-.662-2.475 0l-.586.586c-.682.682-.682 1.792 0 2.475l.586.586-2.268 2.268-.586-.586c-.682-.682-1.792-.681-2.474 0l-.586.586c-.331.328-.513.768-.513 1.235 0 .468.182.907.513 1.237l2.585 2.585c.331.332.77.514 1.238.514.467 0 .907-.182 1.237-.513l.586-.586c.682-.682.682-1.792 0-2.475l-.586-.586 2.268-2.268.586.586c.341.341.789.511 1.237.511s.896-.171 1.237-.512l.586-.586c.331-.328.513-.768.513-1.235 0-.468-.182-.907-.513-1.237z"/></svg>